<svg height="511.9" viewBox="0 0 511.9 511.9" width="511.9" xmlns="http://www.w3.org/2000/svg"><path d="m476.6 133c-53.7-63.5-148.7-66.5-206.3-9.1-.1.1-.1.1-.2.2-8 8-20.5 8-28.4 0-.1-.1-.1-.1-.2-.2-54.6-54.8-143.3-55-198.1-.4-46.6 46.3-54.3 121.1-18.4 176.2 11.2 17.3 25.3 30.6 40.9 40.7l180 145.7c6.4 5.2 15.6 5.2 22.1 0l178.8-145.9c15-10 28.6-23 39.5-39.5 34.1-51.3 30.1-120.7-9.7-167.7z" fill="#ff473e"/><path d="m58.7 242.6c-.6 0-1.3 0-1.9-.1-12.9-1.1-22.5-12.4-21.5-25.3 3.8-45.9 36.5-83.5 81.5-93.5 12.6-2.8 25.2 5.1 28 17.8 2.8 12.6-5.1 25.2-17.8 28-24.8 5.5-42.9 26.3-45 51.6-1 12.2-11.2 21.5-23.3 21.5z" fill="#ff6e83"/></svg>